Coordinates
version=1
nRows=11
nColumns=40
inDegrees=yes

Units are S.I. units (second, meters, Newtons, ...)
Angles are in degrees.

endheader
time	pelvis_tilt	pelvis_list	pelvis_rotation	pelvis_tx	pelvis_ty	pelvis_tz	hip_flexion_r	hip_adduction_r	hip_rotation_r	knee_angle_r	knee_angle_r_beta	ankle_angle_r	subtalar_angle_r	mtp_angle_r	hip_flexion_l	hip_adduction_l	hip_rotation_l	knee_angle_l	knee_angle_l_beta	ankle_angle_l	subtalar_angle_l	mtp_angle_l	lumbar_extension	lumbar_bending	lumbar_rotation	arm_flex_r	arm_add_r	arm_rot_r	elbow_flex_r	pro_sup_r	wrist_flex_r	wrist_dev_r	arm_flex_l	arm_add_l	arm_rot_l	elbow_flex_l	pro_sup_l	wrist_flex_l	wrist_dev_l
     48.65750000	     -7.15564077	     -3.83594408	      0.07109869	      1.03124564	      0.92296234	      0.51971103	     23.03741456	     -1.36798824	    -13.64766753	     18.88367300	     18.88367300	      4.94822389	      0.24174994	     -2.53357929	     10.66494793	     -9.92051188	     -3.98190957	     40.52651284	     40.52651284	      9.76511935	    -12.49444953	    -12.75559053	    -11.86648648	      5.10649130	      2.22539892	     -4.78689753	    -18.42480871	      0.07885760	     50.46130576	     45.31188834	      0.00000000	      0.00000000	      3.87792119	    -12.56820812	    -12.82951340	     97.50887450	     48.36934441	      0.00000000	      0.00000000
     48.66971429	     -7.14586288	     -3.90389853	      0.07796366	      1.03142854	      0.92403398	      0.52249458	     22.15099152	     -1.07382479	    -13.97386991	     18.22016299	     18.22016299	      4.98710554	      0.87489278	     -3.42313720	     12.52861859	    -10.27838210	     -3.06052898	     44.14784356	     44.14784356	      6.02768438	    -15.09509302	    -15.16800535	    -11.93224299	      5.12664826	      2.62963046	     -4.49523617	    -18.95893543	      1.39389506	     53.07332906	     45.17514686	      0.00000000	      0.00000000	      3.61824731	    -11.93958861	    -12.45755279	     94.70523295	     48.30810546	      0.00000000	      0.00000000
     48.68192857	     -7.15558873	     -4.14685293	      0.11550953	      1.03135734	      0.92481116	      0.52537570	     21.35726142	     -0.56563691	    -14.17473915	     17.67297245	     17.67297245	      5.28898033	      1.16992211	     -3.51453634	     14.69784442	    -10.88259161	     -2.18407590	     48.18241306	     48.18241306	      3.48704542	    -16.17453840	    -14.71328983	    -12.02130037	      5.26708260	      2.65065733	     -3.21654303	    -18.83802878	      1.39598143	     53.95114680	     45.15275114	      0.00000000	      0.00000000	      2.66838642	    -11.64325273	    -12.02356747	     93.44301013	     48.25280897	      0.00000000	      0.00000000
     48.69414286	     -7.21827017	     -4.32117982	      0.15458176	      1.03103199	      0.92534198	      0.52809721	     20.67020441	     -0.16615230	    -14.44267940	     17.17782475	     17.17782475	      5.42550256	      1.56635066	     -4.04397333	     17.04376732	    -11.22844853	     -1.09043320	     52.24059939	     52.24059939	      1.70934090	    -16.85886139	    -11.79462758	    -11.99483911	      5.38076431	      3.00090742	     -2.60020396	    -19.27692438	      2.40424003	     56.50533633	     45.04097903	      0.00000000	      0.00000000	      2.52452865	    -11.23733300	    -11.35214660	     90.15679194	     48.15819848	      0.00000000	      0.00000000
     48.70635714	     -7.30320925	     -4.64799501	      0.25164920	      1.03043565	      0.92556248	      0.53083898	     20.08485932	      0.39396907	    -14.65877859	     16.80308818	     16.80308818	      5.74086123	      1.72239500	     -4.12164692	     19.42021652	    -11.75070908	     -0.01677367	     55.95036803	     55.95036803	     -0.59006608	    -17.49164486	    -10.63481193	    -12.00756608	      5.58607494	      2.89501553	     -1.13525220	    -19.10889279	      2.39273875	     57.65418760	     45.01184089	      0.00000000	      0.00000000	      1.60607553	    -11.03668047	    -10.89574264	     88.51033887	     48.09416372	      0.00000000	      0.00000000
     48.71857143	     -7.39627133	     -4.87071869	      0.32340649	      1.02961895	      0.92567969	      0.53330777	     19.61234460	      0.80427352	    -14.82863995	     16.60167568	     16.60167568	      6.03358272	      1.87588060	     -4.30681081	     21.97245316	    -11.89396836	      1.24917920	     59.77992588	     59.77992588	     -0.56944222	    -17.13988506	     -3.98373411	    -11.97471151	      5.74969783	      3.35945387	     -0.58785500	    -19.63696264	      3.20042832	     60.96431892	     44.90433695	      0.00000000	      0.00000000	      1.81764219	    -10.76425811	     -9.73394023	     84.50627344	     47.95890531	      0.00000000	      0.00000000
     48.73078571	     -7.46622383	     -5.15155551	      0.43799768	      1.02865014	      0.92567732	      0.53576434	     19.17463407	      1.27876866	    -14.92503110	     16.48821493	     16.48821493	      6.39242470	      1.81096275	     -4.31118153	     24.27061226	    -12.16160188	      2.31904589	     62.78193394	     62.78193394	     -1.90100283	    -17.43491663	     -1.75489561	    -11.98114574	      5.90975078	      3.18307890	      1.00536433	    -19.52286644	      3.43323424	     62.79615216	     44.85404490	      0.00000000	      0.00000000	      1.44412913	    -10.50498335	     -9.38404014	     81.16756116	     47.87664785	      0.00000000	      0.00000000
     48.74300000	     -7.61412365	     -5.53338265	      0.62102150	      1.02755938	      0.92541939	      0.53806732	     18.81660002	      1.83264614	    -15.13534913	     16.35548472	     16.35548472	      6.79228229	      1.75166736	     -4.35086252	     26.60564595	    -12.50091861	      3.37503947	     65.31411550	     65.31411550	     -3.15670877	    -17.74837478	     -0.64751829	    -11.90545056	      6.16198775	      3.02217339	      2.65642977	    -19.31223967	      3.44290791	     64.24206115	     44.81649289	      0.00000000	      0.00000000	      0.70950327	    -10.27712145	     -8.96181072	     79.09903047	     47.80794888	      0.00000000	      0.00000000
     48.75521429	     -7.63464268	     -5.67832032	      0.73748891	      1.02641662	      0.92548733	      0.54009259	     18.42647156	      2.13672216	    -15.04291744	     16.40719276	     16.40719276	      7.25945244	      1.51764664	     -4.08881136	     28.73830575	    -12.48950156	      4.22430322	     67.51344572	     67.51344572	     -2.74261452	    -17.64725616	      3.71333870	    -11.94507752	      6.25506203	      3.37743954	      3.63925470	    -19.84940392	      4.50897264	     67.54269882	     44.69393081	      0.00000000	      0.00000000	      1.59220623	     -9.72649794	     -8.42160344	     73.19503001	     47.67241598	      0.00000000	      0.00000000
     48.76742857	     -7.72035271	     -5.88317029	      0.93269342	      1.02523869	      0.92537732	      0.54198732	     18.04010585	      2.48882406	    -15.11562504	     16.32540971	     16.32540971	      7.66382298	      1.37033410	     -4.02306241	     30.77959879	    -12.62929513	      4.88336178	     68.99634206	     68.99634206	     -3.08649307	    -17.89918365	      4.75298834	    -11.94197878	      6.32492628	      2.90830144	      5.49941426	    -19.33595631	      4.34969468	     69.59778195	     44.64803343	      0.00000000	      0.00000000	      0.85691901	     -9.73121299	     -7.90861779	     70.58290133	     47.58673349	      0.00000000	      0.00000000
     48.77964286	     -7.68618065	     -5.96428987	      1.12935819	      1.02407884	      0.92555515	      0.54355224	     17.58000186	      2.70125501	    -15.00638880	     16.35843750	     16.35843750	      8.18327096	      1.04913125	     -3.69643308	     32.58443285	    -12.60749492	      5.32992638	     69.99355120	     69.99355120	     -2.46544331	    -18.08412486	      7.35774951	    -12.05125402	      6.34536664	      3.27095062	      6.66315613	    -19.69686194	      4.80889078	     72.69670467	     44.56055491	      0.00000000	      0.00000000	      1.74864985	     -9.12265674	     -7.38168843	     64.97744845	     47.46308315	      0.00000000	      0.00000000
